<svg width="17" height="15" viewBox="0 0 17 15" fill="none" 
    xmlns="http://www.w3.org/2000/svg">
    <path d="M16 14.5C16.1786 14.5 16.3436 14.4047 16.433 14.2501C16.5223 14.0954 16.5223 13.9048 16.4331 13.7501L8.93309 0.750139C8.8438 0.59536 8.67869 0.5 8.5 0.5C8.32131 0.5 8.1562 0.59536 8.06691 0.750139L0.566907 13.7501C0.477655 13.9048 0.4777 14.0954 0.567027 14.2501C0.656354 14.4047 0.821396 14.5 1 14.5L16 14.5Z" fill="white" stroke="#D0021B" stroke-linejoin="round"/>
    <path d="M8.98633 10.5918H8.00781L7.93164 4.46875H9.06836L8.98633 10.5918ZM7.89062 12.4551C7.89062 12.2793 7.94336 12.1328 8.04883 12.0156C8.1582 11.8945 8.31836 11.834 8.5293 11.834C8.74023 11.834 8.90039 11.8945 9.00977 12.0156C9.11914 12.1328 9.17383 12.2793 9.17383 12.4551C9.17383 12.6309 9.11914 12.7773 9.00977 12.8945C8.90039 13.0078 8.74023 13.0645 8.5293 13.0645C8.31836 13.0645 8.1582 13.0078 8.04883 12.8945C7.94336 12.7773 7.89062 12.6309 7.89062 12.4551Z" fill="black"/>
</svg>
