<?xml version="1.0" encoding="UTF-8"?>
<svg viewBox="0 0 90 90" version="1.1" xmlns="http://www.w3.org/2000/svg" xmlns:xlink="http://www.w3.org/1999/xlink">
    <title>Group</title>
    <defs>
        <linearGradient x1="100%" y1="50%" x2="1.83699324%" y2="50%" id="linearGradient-1">
            <stop stop-color="#82E4F1" offset="0%"></stop>
            <stop stop-color="#69D4F0" offset="100%"></stop>
        </linearGradient>
    </defs>
    <g id="Symbols" stroke="none" stroke-width="1" fill="none" fill-rule="evenodd">
        <g id="JasprLogoGuide" transform="translate(-35.000000, -35.000000)" fill="url(#linearGradient-1)">
            <g id="Group" transform="translate(35.000000, 35.000000)">
                <path d="M45.0054369,36.7120804 C58.1415432,22.1161509 74.3663694,16.7283052 83.6431725,23.9199733 C93.9289715,31.8868555 91.4873715,51.9178736 78.0936944,69.5437952 L78.0936944,69.5437952 L78.0511207,69.5996278 C68.4677873,82.1855837 56.0362752,90 45.609983,90 L45.609983,90 L44.3966334,90 C33.9703412,90 21.5409578,82.1834363 11.9618817,69.5974804 C5.47578283,61.0851566 1.32272117,51.7074276 0.264765435,43.1908091 C-0.799576353,34.6333898 1.36742353,27.7917492 6.3613152,23.9199733 C15.6423756,16.7347474 31.8650731,22.1161509 45.0054369,36.7120804 Z M45.0054369,45.250173 C34.3322174,59.7430269 31.5755722,76.7676744 39.0046779,82.529169 C40.6224774,83.7811076 42.6404694,84.4596884 45.0075655,84.5541743 C47.3618896,84.4618358 49.3862677,83.783255 51.0040672,82.529169 C58.4353016,76.7698218 55.6786563,59.7430269 45.0054369,45.250173 Z M73.8256838,26.1790461 C66.3561331,26.1790461 56.4322103,31.9598673 48.5007353,40.9167044 L48.5007353,40.9167044 L48.677416,41.1421822 C58.9483143,54.6300494 63.0439015,69.7327671 59.2378153,79.8663835 C64.5169505,76.565818 69.5406438,71.8866169 73.7937536,66.3012097 C85.0012726,51.5785832 88.0176172,34.1351912 80.3756432,28.2126411 C78.63438,26.8640691 76.4290638,26.1790461 73.8256838,26.1790461 Z M16.1851899,26.1790461 C13.5775525,26.1790461 11.3722363,26.8640691 9.63310186,28.2147885 C5.95686532,31.062251 4.61579467,36.6304789 5.85468851,43.8951588 C7.0999684,51.2049343 10.7804623,59.1610794 16.2171202,66.2969149 L16.2171202,66.2969149 L16.2596938,66.3570423 C20.5085463,71.9209754 25.5130813,76.5765551 30.7709298,79.8620887 C26.9627149,69.7284722 31.0604307,54.627902 41.3334577,41.1443297 C41.3866748,41.0691704 41.4420206,40.9983059 41.499495,40.9295889 L41.499495,40.9295889 L41.5080097,40.9167044 C33.5765347,31.9598673 23.6504832,26.1790461 16.1851899,26.1790461 Z M45.0043725,-9.23705556e-14 C51.8672484,-9.23705556e-14 57.4486567,5.63265014 57.4486567,12.5580397 C57.4486567,19.4812818 51.8672484,25.1139319 45.0043725,25.1139319 C38.1414967,25.1139319 32.555831,19.4812818 32.555831,12.5580397 C32.555831,5.63265014 38.1414967,-9.23705556e-14 45.0043725,-9.23705556e-14 Z M45.0043725,5.00775453 C40.8789837,5.00775453 37.5220497,8.39636372 37.5220497,12.5580397 C37.5220497,16.7175682 40.8789837,20.10403 45.0043725,20.10403 C49.1276326,20.10403 52.4845666,16.7175682 52.4845666,12.5580397 C52.4845666,8.39636372 49.1276326,5.00775453 45.0043725,5.00775453 Z" id="Combined-Shape"></path>
            </g>
        </g>
    </g>
</svg>