<?xml version="1.0" encoding="UTF-8"?>
<svg width="18px" height="19px" viewBox="0 0 18 19" version="1.1"
    xmlns="http://www.w3.org/2000/svg"
    xmlns:xlink="http://www.w3.org/1999/xlink">
    <g stroke="none" stroke-width="1" fill="none" fill-rule="evenodd">
        <g>
            <path d="M8.53348719,15.39671 L11.8749674,11.8995452 C11.1049007,10.9665151 9.467004,10.5 6.96127735,10.5 C2.77694021,10.5 0.456514426,12.1322367 4.78284079e-13,15.39671 L8.53348719,15.39671 Z" id="Oval" fill="#009BB1"></path>
            <g transform="translate(5.874967, 7.500000)" stroke="#FFFFFF" stroke-width="0.75">
                <g transform="translate(6.248527, 6.152093) rotate(-45.000000) translate(-6.248527, -6.152093) translate(0.248527, 4.152093)">
                    <path d="M2.4537061,0.75 L11.4849642,0.75 C11.6527207,0.75 11.7887142,0.885993507 11.7887142,1.05375 L11.7887142,3.18 C11.7887142,3.34775649 11.6527207,3.48375 11.4849642,3.48375 L2.4537061,3.48375 C2.40048027,3.48375 2.34818882,3.46976396 2.30206978,3.44319287 L0.114204966,2.18267322 C0.0778656143,2.16173661 0.065379223,2.11530527 0.0863158308,2.07896592 C0.0929935874,2.06737544 0.102614486,2.05775454 0.114204966,2.05107678 L2.30206978,0.79055713 C2.34818882,0.763986037 2.40048027,0.75 2.4537061,0.75 Z" fill="#009BB1"></path>
                    <line x1="9.11379139" y1="1.18638934" x2="9.11379139" y2="3.30770968" id="Line-2" stroke-linecap="round"></line>
                </g>
            </g>
            <circle fill="#009BB1" cx="6.99996739" cy="4.125" r="4.125"></circle>
        </g>
    </g>
</svg>