<?xml version="1.0" encoding="UTF-8"?>
<svg width="18px" height="24px" viewBox="0 0 18 24" version="1.1"
    xmlns="http://www.w3.org/2000/svg"
    xmlns:xlink="http://www.w3.org/1999/xlink">
    <g stroke="none" stroke-width="1" fill="none" fill-rule="evenodd">
        <g id="Group" transform="translate(0.000000, 2.000000)">
            <path d="M1,0 L2.06920215,0 L17,0 C17.5522847,-2.12475365e-16 18,0.44771525 18,1 L18,21 C18,21.5522847 17.5522847,22 17,22 L1,22 C0.44771525,22 6.76353751e-17,21.5522847 0,21 L0,1 C-6.76353751e-17,0.44771525 0.44771525,1.01453063e-16 1,0 Z" fill="#179BB0"></path>
            <line x1="4.26315789" y1="7.5" x2="13.7368421" y2="7.5" id="Line" stroke="#FFFFFF" stroke-linecap="round"></line>
            <line x1="4.26315789" y1="10.5" x2="13.7368421" y2="10.5" id="Line" stroke="#FFFFFF" stroke-linecap="round"></line>
            <line x1="4.26315789" y1="13.5" x2="7.89756787" y2="13.5" id="Line" stroke="#FFFFFF" stroke-linecap="round"></line>
        </g>
        <rect stroke="#FFFFFF" fill="#179BB0" x="5" y="0" width="8" height="4" rx="1"></rect>
    </g>
</svg>