<?xml version="1.0" encoding="UTF-8"?>
<svg viewBox="0 0 72 72" version="1.1" 
    xmlns="http://www.w3.org/2000/svg" 
    xmlns:xlink="http://www.w3.org/1999/xlink">
    <title>Phone Icon</title>
    <g id="Stability-Plan-Walkthrough" stroke="none" stroke-width="1" fill="none" fill-rule="evenodd">
        <g id="National-Lifelines" transform="translate(-74.000000, -447.000000)">
            <g id="Group" transform="translate(74.000000, 447.000000)">
                <circle id="Oval" fill="#6DC6D2" cx="36" cy="36" r="36"></circle>
                <path d="M27.4324503,17 C28.7318799,17 31.5182308,24.383123 31.5182308,26.9215927 C31.5182308,27.9429208 30.6117621,28.6140669 28.9203307,28.7261365 C28.7902847,28.734753 27.4481929,28.0932988 26.9831718,29.6018437 C26.8073037,30.1723661 38.234615,44.515792 39.7787389,45.2264989 C41.6065656,46.0677843 40.7472305,43.8503951 42.0531058,42.9124223 C43.3959917,41.9478657 50.848218,43.169944 52.5699549,44.4329568 C54.2916919,45.6959696 50.5825058,53.6569141 46.084373,54.7860708 C44.3015593,55.2336068 42.0592346,55.9247434 33.8408653,49.7754955 C26.5174247,44.2958619 22.3186843,37.0664608 20.1341864,31.6992165 C18.6482957,28.0484287 18.5958078,24.3868297 20.1341864,21.8443294 C22.6080339,17.7557661 25.5505295,17 27.4324503,17 Z" id="Path-11" fill="#B2F6FF"></path>
            </g>
        </g>
    </g>
</svg>