<?xml version="1.0" encoding="UTF-8"?>
<svg viewBox="0 0 40 40" version="1.1" 
    xmlns="http://www.w3.org/2000/svg" 
    xmlns:xlink="http://www.w3.org/1999/xlink">
    <title>Phone Icon Dark</title>
    <g id="phone-icon-dark" stroke="none" stroke-width="1" fill="none" fill-rule="evenodd">
        <g id="HotlineButton_v2" transform="translate(-251.000000, -705.000000)">
            <g id="Group-2" transform="translate(251.000000, 705.000000)">
                <circle id="Oval" fill="#5C6597" cx="19.7142857" cy="19.7142857" r="19.7142857"></circle>
                <path d="M24.0587302,21.5761905 C22.8174603,22.8174603 22.8174603,24.0587302 21.5761905,24.0587302 C20.3349206,24.0587302 19.0936508,22.8174603 17.852381,21.5761905 C16.6111111,20.3349206 15.3698413,19.0936508 15.3698413,17.852381 C15.3698413,16.6111111 16.6111111,16.6111111 17.852381,15.3698413 C19.0936508,14.1285714 15.3698413,10.4047619 14.1285714,10.4047619 C12.8873016,10.4047619 10.4047619,14.1285714 10.4047619,14.1285714 C10.4047619,16.6111111 12.9549508,21.6438397 15.3698413,24.0587302 C17.7847317,26.4736206 22.8174603,29.0238095 25.3,29.0238095 C25.3,29.0238095 29.0238095,26.5412698 29.0238095,25.3 C29.0238095,24.0587302 25.3,20.3349206 24.0587302,21.5761905 Z" id="Path" stroke="#F8F8F8" stroke-width="1.64285714" fill-rule="nonzero"></path>
            </g>
        </g>
    </g>
</svg>