<?xml version="1.0" encoding="UTF-8"?>
<svg width="17px" height="17px" viewBox="0 0 17 17" version="1.1"
    xmlns="http://www.w3.org/2000/svg"
    xmlns:xlink="http://www.w3.org/1999/xlink">
    <g stroke="none" stroke-width="1" fill="none" fill-rule="evenodd">
        <path d="M8.49530957,1 C4.34896811,1 1,4.35625 1,8.5 C1,12.64375 4.34896811,16 8.49530957,16 C11.9943715,16 14.9118199,13.609375 15.7467167,10.375 L14.9395949,10.375 C14.1703641,12.559375 12.058867,15.193626 8.49530957,15.193626 C5.3902439,15.193626 1.77496652,12.4363938 1.77496652,8.5 C1.77496652,4.56360624 4.78523568,1.7791311 8.49530957,1.7791311 C10.0525328,1.7791311 11.1615887,2.01122906 13.2353559,3.85569999 L14.9395949,5.50928053 L11.0911778,5.50928053 L11.0911778,6.23293452 L16,6.23293452 L16,1 L15.3041183,1 L15.3041183,4.70785676 L13.7954972,3.203125 C12.435272,1.84375 10.5684803,1 8.49530957,1 Z" stroke="#009BB3" fill="#009BB1"></path>
    </g>
</svg>