<?xml version="1.0" encoding="UTF-8"?>
<svg viewBox="0 0 72 72" version="1.1" 
    xmlns="http://www.w3.org/2000/svg" 
    xmlns:xlink="http://www.w3.org/1999/xlink">
    <title>Text Icon</title>
    <g id="Stability-Plan-Walkthrough" stroke="none" stroke-width="1" fill="none" fill-rule="evenodd">
        <g id="National-Lifelines" transform="translate(-194.000000, -447.000000)">
            <g id="Group-2" transform="translate(194.000000, 447.000000)">
                <circle id="Oval" fill="#6DC6D2" cx="36" cy="36" r="36"></circle>
                <g id="bubble2" transform="translate(14.000000, 18.000000)" fill="#B2F6FF">
                    <path d="M21.9043478,5.35902262 C19.5947962,5.35902262 17.364606,5.7220964 15.2756522,6.43618616 C13.3117935,7.1087435 11.5631522,8.05863026 10.0794973,9.26039108 C7.29646739,11.5125203 5.76304348,14.4090721 5.76304348,17.4168235 C5.76304348,19.1035759 6.23383152,20.7407573 7.16061141,22.2801365 C8.1169837,23.867747 9.55625,25.3187024 11.3210326,26.477591 C12.5975408,27.3149383 13.4557201,28.6520144 13.6816984,30.1578998 C13.7570245,30.6603081 13.8041033,31.1667358 13.8229348,31.6704839 C14.1363451,31.4105713 14.4430299,31.1332419 14.7429891,30.8344764 C15.7585462,29.8229609 17.129212,29.2642828 18.5469565,29.2642828 C18.7729348,29.2642828 18.998913,29.2790201 19.2262364,29.3071549 C20.1072826,29.4183547 21.0085054,29.4759641 21.9030027,29.4759641 C24.2125543,29.4759641 26.4427446,29.1128904 28.5316984,28.3988006 C30.4955571,27.7262433 32.2441984,26.7763565 33.7278533,25.5745957 C36.5108832,23.3224664 38.0443071,20.4259147 38.0443071,17.4181633 C38.0443071,14.4104118 36.5108832,11.5138601 33.7278533,9.26173084 C32.2428533,8.05997001 30.494212,7.11008326 28.5316984,6.43752592 C26.4427446,5.7220964 24.2125543,5.36036237 21.9030027,5.36036237 L21.9043478,5.35902262 Z M21.9043478,0 L21.9043478,0 C33.7910734,0 43.426087,7.79737791 43.426087,17.4168235 C43.426087,27.0362691 33.7910734,34.833647 21.9043478,34.833647 C20.7623505,34.833647 19.641875,34.7613002 18.5483016,34.6219656 C13.925163,39.2267058 8.40752717,40.0519953 3.07282609,40.173913 L3.07282609,39.0471785 C5.95404891,37.6417749 8.45326087,35.080162 8.45326087,32.1541357 C8.45326087,31.7455102 8.42097826,31.3449233 8.36179348,30.9523749 C3.49384511,27.7597372 0.382608696,22.8816868 0.382608696,17.4168235 C0.382608696,7.79737791 10.0176223,0 21.9043478,0 Z" id="Shape" fill-rule="nonzero"></path>
                    <circle id="Oval" cx="21.5217391" cy="17.6956522" r="2.39130435"></circle>
                    <circle id="Oval" cx="27.2608696" cy="17.6956522" r="2.39130435"></circle>
                    <circle id="Oval" cx="15.7826087" cy="17.6956522" r="2.39130435"></circle>
                </g>
            </g>
        </g>
    </g>
</svg>