<?xml version="1.0" encoding="UTF-8"?>
<svg viewBox="0 0 40 40" version="1.1" 
    xmlns="http://www.w3.org/2000/svg" 
    xmlns:xlink="http://www.w3.org/1999/xlink">
    <title>Text Icon Dark</title>
    <g id="text-icon-dark" stroke="none" stroke-width="1" fill="none" fill-rule="evenodd">
        <g id="HotlineButton_v2" transform="translate(-310.000000, -705.000000)">
            <g id="Group" transform="translate(310.000000, 705.000000)">
                <circle id="Oval" fill="#5C6597" cx="19.7142857" cy="19.7142857" r="19.7142857"></circle>
                <g id="bubble2" transform="translate(7.119048, 8.761905)" stroke="#FFFFFF">
                    <path d="M3.74767479,22.0537916 C5.98156841,21.801438 8.29517403,21.0808309 10.7229241,19.0066088 C11.3151766,19.082069 11.9220002,19.1212113 12.5404762,19.1212113 C15.7388922,19.1212113 18.6389588,18.0810738 20.7364134,16.383674 C22.764196,14.7426574 24.0404762,12.4821149 24.0404762,9.97131995 C24.0404762,7.44899356 22.7513742,5.17979009 20.6698738,3.5382232 C18.5336488,1.85349802 15.5669082,0.824917392 12.2313733,0.824683372 C9.10239677,0.890537845 6.27804174,1.95220068 4.24013457,3.64455472 C2.2730796,5.27807044 1.04047619,7.50403026 1.04047619,9.97131995 C1.04047619,12.8337062 2.69778423,15.3678847 5.59946578,17.5981064 C5.63938082,17.8628465 5.6610119,18.1330151 5.6610119,18.4085907 C5.6610119,19.3744268 5.28901572,20.2909293 4.6659364,21.0891756 C4.40096239,21.4286421 4.09032522,21.7463316 3.74767479,22.0537916 Z" id="Shape" stroke-width="1.64285714" fill-rule="nonzero"></path>
                    <circle id="Oval" stroke-width="0.547619048" fill="#FFFFFF" cx="12.3214286" cy="10.1309524" r="1.0952381"></circle>
                    <circle id="Oval" stroke-width="0.547619048" fill="#FFFFFF" cx="15.6071429" cy="10.1309524" r="1.0952381"></circle>
                    <circle id="Oval" stroke-width="0.547619048" fill="#FFFFFF" cx="9.03571429" cy="10.1309524" r="1.0952381"></circle>
                </g>
            </g>
        </g>
    </g>
</svg>