<svg width="19" height="18" viewBox="0 0 19 18" fill="none" xmlns="http://www.w3.org/2000/svg">
<path fill-rule="evenodd" clip-rule="evenodd" d="M9.50002 2.56425C8.49047 1.03136 6.7924 8.60976e-05 5.02581 0C4.50088 0 3.97004 0.0910052 3.4493 0.286963C0.741352 1.30584 -0.664812 4.42964 0.308547 7.26414C1.22877 9.9441 8.65209 17.1519 9.45914 17.9303C9.46506 17.9756 9.46835 18 9.46835 18C9.46835 18 9.47987 17.989 9.50002 17.9696C9.52009 17.989 9.5316 18 9.5316 18C9.5316 18 9.53481 17.9756 9.54082 17.9303C10.3479 17.1519 17.7712 9.9441 18.6915 7.26414C19.6648 4.42964 18.2586 1.30584 15.5507 0.286963C15.0301 0.0910913 14.499 0 13.9742 0C12.2075 0 10.5096 1.03119 9.50002 2.56425Z" fill="#FF3B00"/>
</svg>
