<?xml version="1.0" encoding="UTF-8"?>
<svg width="121px" height="121px" viewBox="0 0 121 121" version="1.1"
    xmlns="http://www.w3.org/2000/svg"
    xmlns:xlink="http://www.w3.org/1999/xlink">
    <defs>
        <linearGradient x1="100%" y1="50%" x2="1.83699324%" y2="50%" id="linearGradient-1">
            <stop stop-color="#82E4F1" offset="0%"></stop>
            <stop stop-color="#69D4F0" offset="100%"></stop>
        </linearGradient>
    </defs>
    <g transform="translate(-479.000000, -88.000000)" fill="url(#linearGradient-1)">
        <path d="M539.50731,137.433616 C557.168075,117.831089 578.981452,110.59514 591.453599,120.253646 C605.282284,130.953275 601.999688,157.855198 583.992634,181.527045 L583.992634,181.527045 L583.935396,181.602029 C571.051136,198.505135 554.337659,209 540.320088,209 L540.320088,209 L538.688807,209 C524.671236,209 507.960621,198.502251 495.082085,181.599145 C486.361886,170.166981 480.778325,157.572567 479.355962,146.134635 C477.925014,134.641907 480.838425,125.453493 487.552435,120.253646 C500.030305,110.603792 521.840821,117.831089 539.50731,137.433616 Z M539.50731,148.900388 C525.157759,168.364483 521.451603,191.228811 531.439622,198.966575 C533.614664,200.647945 536.327742,201.559288 539.510171,201.686184 C542.675429,201.562172 545.397093,200.650829 547.572135,198.966575 C557.563017,191.231695 553.85686,168.364483 539.50731,148.900388 Z M578.25453,123.287611 C568.212135,123.287611 554.869972,131.051331 544.206544,143.080482 L544.206544,143.080482 L544.444082,143.383302 C558.252734,161.497686 563.759023,181.780837 558.641952,195.390418 C565.739456,190.957715 572.493532,184.673486 578.211602,177.17221 C593.279489,157.399527 597.334796,133.97282 587.060587,126.018756 C584.719555,124.207606 581.75463,123.287611 578.25453,123.287611 Z M500.760089,123.287611 C497.254265,123.287611 494.28934,124.207606 491.95117,126.02164 C487.008674,129.84582 485.205679,137.324024 486.871303,147.080586 C488.545513,156.897711 493.493733,167.58292 500.803017,177.166442 L500.803017,177.166442 L500.860255,177.247194 C506.572601,184.71963 513.30092,190.972135 520.369806,195.38465 C515.249872,181.775069 520.759024,161.494802 534.570538,143.386186 C534.642085,143.285246 534.716494,143.190074 534.793766,143.097786 L534.793766,143.097786 L534.805213,143.080482 C524.141786,131.051331 510.796761,123.287611 500.760089,123.287611 Z M539.502822,88 C548.600821,88 556,95.4013681 556,104.501411 C556,113.598632 548.600821,121 539.502822,121 C530.404823,121 523,113.598632 523,104.501411 C523,95.4013681 530.404823,88 539.502822,88 Z M539.502822,94.580248 C534.033864,94.580248 529.583633,99.0329201 529.583633,104.501411 C529.583633,109.96708 534.033864,114.41693 539.502822,114.41693 C544.968958,114.41693 549.419189,109.96708 549.419189,104.501411 C549.419189,99.0329201 544.968958,94.580248 539.502822,94.580248 Z"></path>
    </g>
</svg>