<svg version="1" xmlns="http://www.w3.org/2000/svg" width="344" height="344" viewBox="0 0 258.000000 258.000000"><path d="M119.3 1.4c-31.5 10.3-35 52.3-5.5 66.8 5.9 2.9 7.6 3.3 15.2 3.3s9.2-.3 15.2-3.3c12.9-6.3 20-17.8 20.1-32.2 0-14.1-7.2-25.9-19.8-32.1-7.5-3.7-18.3-4.8-25.2-2.5zM139.1 17c4.9 2.6 8.9 7.9 10.5 14.1 3.3 12.8-6.2 25.3-20 26.3-10.1.7-20.1-7.9-21.5-18.5-2.3-17.3 15.5-29.8 31-21.9z"/><path d="M34.8 61.1C11.6 66.9-.7 86.4.4 115.7 2.4 171.4 55 239.5 108 255.1c9.5 2.8 26.5 3.5 36.2 1.4 46.4-10 95.6-63.1 110.5-119.2 3.3-12.7 3.8-34.2.9-43.8-6.6-21.8-22.3-33.8-44.6-33.9-22.9-.1-52.5 15.3-76.3 39.7l-5.7 5.9-6.3-6.4c-28.2-29-63.1-44-87.9-37.7zm22.8 15.5c16.9 3.8 36.3 15.6 53.1 32.3l8.1 8.1-7.5 11.3c-12.4 18.5-21.1 38.3-25 57-2.2 10.6-2.2 29.1-.1 36.9.9 3.2 1.2 5.8.8 5.8-1.6 0-15.8-11.5-23.8-19.4-16.8-16.3-31-37.3-39.2-58-3.6-9-3.4-8.3-6-20.1-4.7-21.3-2.2-37.3 7.5-47.1 7.6-7.7 18.3-9.9 32.1-6.8zm164.8.3c7.9 2.5 14.6 9.6 17.5 18.9 9.3 28.7-9.1 76.2-42.7 110.6-7.2 7.3-24.4 21.6-26.2 21.6-.4 0-.1-2.4.7-5.3 1.7-5.9 2.2-23.3 1-32-2.6-18.7-12.2-41.8-26.3-62.9l-7.2-10.7 5.7-5.8c21.1-22 47-36 66.5-36 3.2 0 8.2.7 11 1.6zm-88.6 59.9c9.1 13.5 16.4 29.3 20.9 45.2 2.9 10.1 4.1 28.1 2.4 35-.7 2.5-1.3 5.2-1.6 6.1-.5 2.5-5.5 10.1-7.9 12.1-11.3 9.7-28.7 9-38.7-1.6-5.8-6.2-8.2-13.5-8.5-26.1-.5-21.8 6.6-43.2 22.9-69.2 2.8-4.5 5.5-8 5.9-7.7.4.3 2.5 3.1 4.6 6.2z"/></svg>